<svg width="388" height="346" viewBox="0 0 388 346" fill="none" xmlns="http://www.w3.org/2000/svg">
<path d="M193.89 345.37C300.972 345.37 387.78 340.302 387.78 334.05C387.78 327.799 300.972 322.73 193.89 322.73C86.8075 322.73 0 327.799 0 334.05C0 340.302 86.8075 345.37 193.89 345.37Z" fill="#F5F5F5"/>
<path d="M349.17 236.141H38.6001V271.301H349.17V236.141Z" fill="#FF725E"/>
<path opacity="0.3" d="M349.18 236.141H282.56V271.301H349.18V236.141Z" fill="black"/>
<path d="M72.8901 271.301H38.6001V334.051H72.8901V271.301Z" fill="#FF725E"/>
<path opacity="0.3" d="M38.6099 271.301V274.811L62.8899 282.141V334.051H72.8899V271.301H38.6099Z" fill="black"/>
<path d="M349.18 271.301H314.89V334.051H349.18V271.301Z" fill="#FF725E"/>
<path opacity="0.2" d="M349.18 271.301H314.89V334.051H349.18V271.301Z" fill="black"/>
<path opacity="0.3" d="M314.89 271.301V274.811L339.18 282.141V334.051H349.18V271.301H314.89Z" fill="black"/>
<path d="M282.56 271.301H248.27V334.051H282.56V271.301Z" fill="#FF725E"/>
<path opacity="0.3" d="M248.27 271.301V274.811L272.56 282.141V334.051H282.56V271.301H248.27Z" fill="black"/>
<path d="M139.51 271.301H105.22V334.051H139.51V271.301Z" fill="#FF725E"/>
<path opacity="0.2" d="M139.51 271.301H105.22V334.051H139.51V271.301Z" fill="black"/>
<path opacity="0.3" d="M105.22 271.301V274.811L129.51 282.141V334.051H139.51V271.301H105.22Z" fill="black"/>
<path d="M306.37 229.231H116.49C115.899 229.235 115.312 229.117 114.769 228.883C114.225 228.649 113.736 228.306 113.332 227.873C112.927 227.441 112.617 226.93 112.421 226.372C112.225 225.813 112.146 225.221 112.19 224.631L120.01 100.541C120.109 99.3037 120.665 98.1479 121.568 97.2978C122.472 96.4476 123.66 95.9639 124.9 95.9405H314.77C315.362 95.9361 315.948 96.0544 316.492 96.288C317.035 96.5216 317.525 96.8654 317.929 97.2977C318.333 97.73 318.643 98.2413 318.839 98.7995C319.036 99.3576 319.114 99.9505 319.07 100.541L311.25 224.631C311.151 225.866 310.597 227.02 309.696 227.87C308.794 228.72 307.609 229.205 306.37 229.231Z" fill="#263238"/>
<path opacity="0.6" d="M306.37 229.231H116.49C115.899 229.235 115.312 229.117 114.769 228.883C114.225 228.649 113.736 228.306 113.332 227.873C112.927 227.441 112.617 226.93 112.421 226.372C112.225 225.813 112.146 225.221 112.19 224.631L120.01 100.541C120.109 99.3037 120.665 98.1479 121.568 97.2978C122.472 96.4476 123.66 95.9639 124.9 95.9405H314.77C315.362 95.9361 315.948 96.0544 316.492 96.288C317.035 96.5216 317.525 96.8654 317.929 97.2977C318.333 97.73 318.643 98.2413 318.839 98.7995C319.036 99.3576 319.114 99.9505 319.07 100.541L311.25 224.631C311.151 225.866 310.597 227.02 309.696 227.87C308.794 228.72 307.609 229.205 306.37 229.231Z" fill="black"/>
<path d="M304.95 229.231H115.08C114.488 229.236 113.9 229.119 113.356 228.886C112.811 228.653 112.32 228.31 111.915 227.877C111.51 227.445 111.199 226.933 111.002 226.374C110.805 225.815 110.726 225.222 110.77 224.631L118.59 100.541C118.689 99.3038 119.245 98.148 120.148 97.2979C121.052 96.4477 122.24 95.964 123.48 95.9406H313.35C313.942 95.9347 314.529 96.052 315.074 96.2851C315.618 96.5182 316.108 96.8619 316.512 97.2945C316.917 97.7271 317.227 98.2391 317.423 98.7979C317.619 99.3568 317.696 99.9502 317.65 100.541L309.83 224.631C309.731 225.866 309.177 227.02 308.276 227.87C307.374 228.72 306.189 229.205 304.95 229.231Z" fill="#263238"/>
<path d="M304.71 230.811H78.7804C77.7403 230.801 76.7188 231.087 75.8339 231.633C74.9491 232.18 74.2372 232.966 73.7804 233.901C73.6646 234.143 73.6127 234.412 73.6296 234.68C73.6464 234.948 73.7315 235.208 73.8766 235.434C74.0218 235.66 74.2223 235.846 74.4592 235.973C74.6961 236.1 74.9615 236.165 75.2304 236.161H308.21C308.479 236.165 308.745 236.1 308.981 235.973C309.218 235.846 309.419 235.66 309.564 235.434C309.709 235.208 309.794 234.948 309.811 234.68C309.828 234.412 309.776 234.143 309.66 233.901C309.209 232.972 308.505 232.19 307.63 231.644C306.754 231.097 305.742 230.808 304.71 230.811Z" fill="#263238"/>
<path opacity="0.6" d="M304.71 230.811H272.58C271.548 230.807 270.536 231.095 269.66 231.642C268.784 232.189 268.081 232.972 267.63 233.901C267.515 234.142 267.463 234.41 267.48 234.677C267.496 234.945 267.58 235.204 267.724 235.43C267.868 235.656 268.067 235.841 268.303 235.969C268.538 236.097 268.802 236.163 269.07 236.161H308.21C308.479 236.165 308.745 236.1 308.982 235.973C309.218 235.846 309.419 235.66 309.564 235.434C309.709 235.208 309.794 234.948 309.811 234.68C309.828 234.411 309.776 234.143 309.66 233.901C309.209 232.972 308.505 232.19 307.63 231.643C306.754 231.097 305.743 230.808 304.71 230.811Z" fill="black"/>
<path d="M284.79 234.71H276.491C276.299 234.707 276.116 234.629 275.981 234.493C275.846 234.356 275.77 234.172 275.771 233.98C275.77 233.788 275.846 233.604 275.981 233.467C276.116 233.331 276.299 233.253 276.491 233.25H284.79C284.886 233.25 284.981 233.269 285.07 233.306C285.158 233.342 285.239 233.396 285.307 233.464C285.374 233.532 285.428 233.612 285.465 233.701C285.502 233.789 285.521 233.884 285.521 233.98C285.521 234.076 285.502 234.171 285.465 234.259C285.428 234.348 285.374 234.428 285.307 234.496C285.239 234.564 285.158 234.618 285.07 234.654C284.981 234.691 284.886 234.71 284.79 234.71Z" fill="#FF725E"/>
<path opacity="0.7" d="M178.061 234.71H169.771C169.577 234.71 169.391 234.633 169.254 234.496C169.117 234.359 169.041 234.174 169.041 233.98C169.041 233.884 169.059 233.789 169.096 233.701C169.133 233.612 169.187 233.532 169.254 233.464C169.322 233.396 169.403 233.342 169.491 233.306C169.58 233.269 169.675 233.25 169.771 233.25H178.061C178.156 233.25 178.251 233.269 178.34 233.306C178.428 233.342 178.509 233.396 178.577 233.464C178.645 233.532 178.698 233.612 178.735 233.701C178.772 233.789 178.791 233.884 178.791 233.98C178.791 234.174 178.714 234.359 178.577 234.496C178.44 234.633 178.254 234.71 178.061 234.71Z" fill="white"/>
<path d="M293.381 233.25H287.951C287.619 233.25 287.351 233.519 287.351 233.85V234.11C287.351 234.441 287.619 234.71 287.951 234.71H293.381C293.712 234.71 293.981 234.441 293.981 234.11V233.85C293.981 233.519 293.712 233.25 293.381 233.25Z" fill="#FF725E"/>
<path d="M115.051 220.15L122.311 105.02C122.348 104.54 122.564 104.091 122.915 103.762C123.267 103.432 123.729 103.246 124.211 103.24H311.701C311.93 103.237 312.158 103.281 312.37 103.371C312.581 103.461 312.772 103.594 312.929 103.761C313.086 103.929 313.207 104.127 313.283 104.344C313.359 104.561 313.389 104.791 313.371 105.02L306.121 220.15C306.081 220.632 305.863 221.081 305.51 221.41C305.157 221.739 304.693 221.925 304.211 221.93H116.73C116.501 221.932 116.273 221.887 116.062 221.797C115.851 221.707 115.66 221.574 115.502 221.407C115.345 221.24 115.223 221.042 115.145 220.826C115.068 220.61 115.035 220.38 115.051 220.15Z" fill="white"/>
<path opacity="0.1" d="M221.71 99.6904L159.26 218.39H113.19C112.959 218.394 112.73 218.349 112.517 218.259C112.305 218.169 112.113 218.035 111.955 217.867C111.797 217.698 111.676 217.498 111.599 217.28C111.523 217.062 111.492 216.831 111.51 216.6L118.77 101.48C118.808 100.999 119.023 100.549 119.374 100.218C119.726 99.8871 120.188 99.6989 120.67 99.6904H221.71Z" fill="#FF725E"/>
<path opacity="0.1" d="M276.4 99.6904L213.95 218.39H199.39L261.84 99.6904H276.4Z" fill="#FF725E"/>
<path opacity="0.1" d="M309.83 101.48L302.57 216.6C302.535 217.082 302.321 217.534 301.969 217.865C301.617 218.196 301.154 218.384 300.67 218.39H229.67L292.12 99.69H308.12C308.354 99.6838 308.585 99.7265 308.801 99.8154C309.017 99.9042 309.211 100.037 309.372 100.206C309.533 100.374 309.657 100.575 309.736 100.794C309.815 101.014 309.847 101.247 309.83 101.48Z" fill="#FF725E"/>
<path opacity="0.4" d="M219.52 99.81C219.493 100.173 219.331 100.512 219.067 100.762C218.802 101.012 218.454 101.154 218.09 101.16C217.916 101.162 217.744 101.128 217.584 101.059C217.425 100.991 217.281 100.89 217.162 100.763C217.044 100.636 216.953 100.486 216.896 100.322C216.839 100.157 216.816 99.9833 216.83 99.81C216.855 99.4465 217.016 99.1057 217.281 98.8556C217.546 98.6054 217.896 98.4642 218.26 98.46C218.434 98.4581 218.606 98.4924 218.766 98.5608C218.926 98.6291 219.069 98.73 219.188 98.8571C219.307 98.9841 219.397 99.1345 219.455 99.2985C219.512 99.4626 219.534 99.6368 219.52 99.81Z" fill="white"/>
<path d="M188.54 72.2001C183.07 78.4601 179.91 97.6501 183.96 107.09C188.01 116.53 141.02 125.98 179.79 141.32C218.56 156.66 249.57 138.87 238.35 122.98C227.13 107.09 239.56 80.6301 226.57 73.9801C214.83 67.9201 199.5 59.6501 188.54 72.2001Z" fill="#263238"/>
<path d="M176.95 149.47C174.9 156.47 172.72 163.47 170.46 170.47C168.2 177.47 165.85 184.39 163.36 191.34L162.41 193.96L161.93 195.27L161.78 195.66L161.54 196.25C161.39 196.63 161.16 197.04 160.96 197.43C159.983 199.216 158.524 200.692 156.75 201.69C155.14 202.565 153.342 203.038 151.51 203.07C148.941 203.083 146.394 202.583 144.02 201.6C142.077 200.812 140.195 199.879 138.39 198.81C131.834 194.778 125.824 189.918 120.51 184.35L124.82 179.27C126.27 180.2 127.82 181.19 129.32 182.12C130.82 183.05 132.39 183.95 133.91 184.84C136.889 186.583 139.964 188.156 143.12 189.55C144.559 190.185 146.043 190.709 147.56 191.12C148.61 191.468 149.719 191.598 150.82 191.5C151.1 191.5 151.05 191.34 150.82 191.43C150.59 191.52 150.34 191.78 150.33 191.75C150.32 191.72 150.33 191.75 150.33 191.69C150.335 191.671 150.335 191.65 150.33 191.63L150.41 191.38L150.79 190.09L151.56 187.49L157.67 166.49C159.75 159.49 161.89 152.49 164.09 145.49L176.95 149.47Z" fill="#B65B52"/>
<path d="M124.51 179.111L112.89 174.811L117.5 187.091C117.5 187.091 125.7 188.271 128.88 183.961L126.29 180.491C125.841 179.87 125.223 179.391 124.51 179.111Z" fill="#B55B52"/>
<path d="M102.64 178.38L107.06 188.45L117.55 187.07L112.93 174.79L102.64 178.38Z" fill="#B55B52"/>
<path d="M168.47 131.361C163.15 132.711 159.47 154.581 159.47 154.581L174.12 164.581C174.12 164.581 188.12 142.521 184.07 136.681C179.77 130.551 176.22 129.391 168.47 131.361Z" fill="#FF725E"/>
<path opacity="0.5" d="M168.47 131.361C163.15 132.711 159.47 154.581 159.47 154.581L174.12 164.581C174.12 164.581 188.12 142.521 184.07 136.681C179.77 130.551 176.22 129.391 168.47 131.361Z" fill="white"/>
<path opacity="0.2" d="M167.99 139.311L179.36 141.941L180.45 153.071C178.524 157 176.398 160.828 174.08 164.541L165.19 158.541C165.58 153.391 166.54 142.811 167.99 139.311Z" fill="black"/>
<path d="M168.47 131.361C168.47 131.361 162.32 133.521 174.63 209.181H226.99C226.11 187.871 226.09 174.721 236.27 130.991C228.941 129.475 221.512 128.496 214.04 128.061C205.23 127.631 198.04 127.351 190.26 128.061C180.05 128.991 168.47 131.361 168.47 131.361Z" fill="#FF725E"/>
<path opacity="0.5" d="M168.47 131.361C168.47 131.361 162.32 133.521 174.63 209.181H226.99C226.11 187.871 226.09 174.721 236.27 130.991C228.941 129.475 221.512 128.496 214.04 128.061C205.23 127.631 198.04 127.351 190.26 128.061C180.05 128.991 168.47 131.361 168.47 131.361Z" fill="white"/>
<path opacity="0.2" d="M223.95 151.29L230.71 157.05C229.27 164.7 228.3 171.05 227.71 176.74C226.42 171.06 223.2 155.64 223.95 151.29Z" fill="black"/>
<path d="M211.68 101.28C210.18 108.93 208.68 122.95 214.04 128.06C214.04 128.06 209.04 139.52 195.79 139.52C182.54 139.52 190.26 128.06 190.26 128.06C198.79 126.06 198.57 119.69 197.09 113.75L211.68 101.28Z" fill="#B55B52"/>
<path d="M212.34 125.201C211.08 127.751 207.02 133.581 195.68 135.661C195.365 135.719 195.04 135.654 194.77 135.481C192.65 134.001 191.33 130.871 192.26 127.241C192.322 127.018 192.32 126.782 192.254 126.56C192.189 126.338 192.063 126.139 191.89 125.985C191.717 125.831 191.505 125.728 191.277 125.689C191.049 125.649 190.815 125.674 190.6 125.761C189.729 126.125 188.892 126.567 188.1 127.081C187.926 127.196 187.785 127.355 187.69 127.541C186.86 129.101 183.5 136.741 193.64 141.451C193.802 141.52 193.974 141.561 194.15 141.571C200.15 141.691 210.64 140.511 217.27 128.571C217.389 128.355 217.441 128.11 217.422 127.864C217.402 127.619 217.311 127.385 217.16 127.191C216.269 126.215 215.234 125.382 214.09 124.721C213.946 124.628 213.784 124.567 213.615 124.541C213.446 124.515 213.273 124.526 213.108 124.571C212.943 124.616 212.789 124.696 212.657 124.804C212.525 124.913 212.417 125.048 212.34 125.201Z" fill="#FAFAFA"/>
<path d="M215.12 156.68L201.62 156.29C201.479 156.291 201.34 156.262 201.21 156.205C201.081 156.148 200.966 156.064 200.871 155.959C200.777 155.854 200.706 155.731 200.662 155.597C200.619 155.462 200.605 155.32 200.62 155.18L200.75 153.51C200.789 153.229 200.93 152.972 201.146 152.788C201.361 152.604 201.637 152.505 201.92 152.51L215.42 152.9C215.562 152.899 215.703 152.928 215.833 152.986C215.963 153.043 216.079 153.128 216.173 153.234C216.268 153.34 216.339 153.465 216.382 153.6C216.424 153.736 216.437 153.879 216.42 154.02L216.29 155.68C216.251 155.961 216.111 156.218 215.895 156.402C215.679 156.586 215.404 156.685 215.12 156.68Z" fill="#FAFAFA"/>
<path opacity="0.2" d="M205.73 106.37L197.09 113.74C197.461 115.122 197.709 116.534 197.83 117.96C201.08 117.49 205.56 113.91 205.91 110.5C206.102 109.124 206.041 107.724 205.73 106.37Z" fill="black"/>
<path d="M221.761 86.8103C219.351 99.3803 218.601 104.75 211.361 110.42C200.471 118.96 185.561 113.24 184.181 100.21C182.931 88.4803 187.081 69.9003 200.181 66.4603C203.051 65.6975 206.069 65.68 208.948 66.4096C211.828 67.1392 214.473 68.5917 216.634 70.6295C218.795 72.6673 220.4 75.223 221.297 78.0546C222.194 80.8862 222.354 83.8999 221.761 86.8103Z" fill="#B55B52"/>
<path d="M214.61 77.5109C213.05 85.3809 212.68 95.8109 219.89 95.8109C227.1 95.8109 232.751 83.5409 226.531 73.9309C220.311 64.3209 215.52 72.8709 214.61 77.5109Z" fill="#263238"/>
<path d="M227.071 78.4804C227.071 87.0405 216.291 82.8104 211.521 79.1204C206.751 75.4304 206.521 75.8304 197.681 75.8204C188.841 75.8104 187.071 75.2004 184.461 70.9804C181.851 66.7605 182.091 63.9804 187.971 64.8704C193.851 65.7604 188.911 59.7604 193.291 56.4304C197.671 53.1004 202.861 53.9404 208.851 61.5404C214.841 69.1404 227.071 63.6504 227.071 78.4804Z" fill="#263238"/>
<path d="M223.905 97.9952C225.039 94.1263 223.927 90.3943 221.42 89.6593C218.913 88.9244 215.961 91.4649 214.827 95.3337C213.693 99.2026 214.806 102.935 217.312 103.67C219.819 104.405 222.771 101.864 223.905 97.9952Z" fill="white"/>
<path d="M203.89 107.671C201.569 107.67 199.273 107.197 197.14 106.281C197.095 106.262 197.053 106.235 197.018 106.2C196.983 106.165 196.956 106.123 196.937 106.078C196.918 106.032 196.909 105.983 196.91 105.934C196.91 105.885 196.921 105.836 196.94 105.791C196.982 105.699 197.057 105.628 197.15 105.59C197.243 105.553 197.347 105.553 197.44 105.591C199.45 106.453 201.612 106.903 203.798 106.915C205.985 106.927 208.151 106.501 210.17 105.661C212.134 104.857 213.917 103.669 215.414 102.166C216.912 100.664 218.094 98.8768 218.89 96.9106C221.89 88.3206 224.95 77.6006 221.41 70.9106C220.698 69.6085 219.713 68.4759 218.522 67.5904C217.331 66.7049 215.962 66.0875 214.51 65.7806C214.414 65.7548 214.332 65.692 214.281 65.6059C214.23 65.5199 214.216 65.4174 214.24 65.3206C214.266 65.2242 214.329 65.1419 214.415 65.0913C214.501 65.0408 214.603 65.0262 214.7 65.0506C216.252 65.3844 217.713 66.0484 218.985 66.9975C220.256 67.9466 221.309 69.1584 222.07 70.5506C225.75 77.4606 222.68 88.3906 219.59 97.1406C218.752 99.2055 217.509 101.082 215.934 102.658C214.359 104.235 212.484 105.48 210.42 106.321C208.352 107.19 206.134 107.648 203.89 107.671Z" fill="white"/>
<path opacity="0.6" d="M223.54 98.0307C222.65 101.031 220.61 103.141 218.98 102.671C217.35 102.201 216.75 99.3407 217.64 96.3007C218.53 93.2607 220.57 91.1807 222.2 91.6607C223.83 92.1407 224.43 94.9907 223.54 98.0307Z" fill="#FF725E"/>
<path d="M198.178 104.625L194.261 103.869C193.572 103.737 192.906 104.187 192.773 104.876L192.73 105.102C192.597 105.79 193.047 106.456 193.736 106.589L197.654 107.345C198.342 107.478 199.008 107.027 199.141 106.339L199.185 106.113C199.318 105.424 198.867 104.758 198.178 104.625Z" fill="white"/>
<path d="M193.061 87.8604C193.061 87.8604 190.741 92.0703 188.541 93.9603C189.731 95.4103 192.131 95.1304 192.131 95.1304L193.061 87.8604Z" fill="#A02724"/>
<path d="M195.27 100.51H195.36C197.627 100.689 199.878 100.003 201.66 98.5902C201.697 98.5528 201.717 98.5026 201.717 98.4502C201.717 98.3979 201.697 98.3476 201.66 98.3102C201.642 98.2924 201.621 98.2782 201.598 98.2686C201.575 98.2589 201.55 98.2539 201.525 98.2539C201.5 98.2539 201.475 98.2589 201.452 98.2686C201.429 98.2782 201.408 98.2924 201.39 98.3102C199.689 99.6477 197.548 100.3 195.39 100.14C195.364 100.136 195.338 100.137 195.313 100.143C195.287 100.15 195.264 100.161 195.243 100.177C195.223 100.193 195.205 100.213 195.193 100.236C195.18 100.259 195.173 100.284 195.17 100.31C195.165 100.35 195.172 100.39 195.19 100.425C195.207 100.461 195.235 100.491 195.27 100.51Z" fill="#263238"/>
<path d="M206.711 82.9103C206.767 82.9418 206.831 82.9583 206.896 82.9583C206.96 82.9583 207.024 82.9418 207.081 82.9103C207.166 82.8531 207.227 82.765 207.249 82.6644C207.271 82.5637 207.254 82.4584 207.201 82.3703C206.722 81.5694 206.06 80.8941 205.269 80.4002C204.478 79.9063 203.58 79.6081 202.651 79.5303C202.546 79.5302 202.446 79.571 202.371 79.6439C202.296 79.7167 202.253 79.8159 202.25 79.9203C202.25 80.022 202.29 80.1197 202.361 80.1926C202.432 80.2654 202.529 80.3077 202.63 80.3103C203.431 80.3866 204.203 80.6511 204.883 81.082C205.562 81.513 206.13 82.0983 206.54 82.7903C206.585 82.8449 206.644 82.8864 206.711 82.9103Z" fill="#263238"/>
<path d="M200.98 88.0309C200.81 89.0309 200.12 89.8009 199.44 89.6909C198.76 89.5809 198.37 88.6909 198.54 87.6109C198.71 86.5309 199.41 85.8409 200.08 85.9509C200.75 86.0609 201.16 87.0009 200.98 88.0309Z" fill="#263238"/>
<path d="M189.321 86.0506C189.151 87.0506 188.461 87.8206 187.781 87.7106C187.101 87.6006 186.711 86.6606 186.881 85.6306C187.051 84.6006 187.751 83.8506 188.421 83.9706C189.091 84.0906 189.501 85.0106 189.321 86.0506Z" fill="#263238"/>
<path d="M188.711 84.0804L186.351 82.9404C186.351 82.9404 187.291 85.0904 188.711 84.0804Z" fill="#263238"/>
<path d="M200.37 86.0607L198.01 84.9307C198.01 84.9307 198.95 87.0807 200.37 86.0607Z" fill="#263238"/>
<path d="M185.36 79.0809C185.421 79.1171 185.49 79.1361 185.56 79.1361C185.631 79.1361 185.7 79.1171 185.76 79.0809C186.377 78.5623 187.111 78.2004 187.898 78.0263C188.685 77.8522 189.502 77.8709 190.28 78.0809C190.378 78.1154 190.486 78.1095 190.58 78.0645C190.674 78.0195 190.746 77.9391 190.78 77.8409C190.815 77.7428 190.809 77.635 190.764 77.5412C190.719 77.4475 190.638 77.3754 190.54 77.3409C189.643 77.0854 188.697 77.0501 187.783 77.2381C186.869 77.4261 186.014 77.8319 185.29 78.4209C185.249 78.4505 185.213 78.4883 185.187 78.5322C185.16 78.576 185.143 78.6248 185.137 78.6756C185.13 78.7263 185.134 78.7779 185.149 78.827C185.163 78.8761 185.187 78.9217 185.22 78.9609C185.254 79.0142 185.303 79.0561 185.36 79.0809Z" fill="#263238"/>
<path d="M172.641 221.931C172.641 221.931 172.501 214.771 174.641 209.181H226.991C226.991 209.181 231.701 216.781 232.921 221.931H172.641Z" fill="#FF725E"/>
<path d="M227.78 206.111L228.19 210.791C228.38 211.161 227.95 211.531 227.34 211.531H174.34C173.87 211.531 173.48 211.301 173.45 211.001L172.97 206.311C172.97 205.991 173.35 205.711 173.87 205.711H226.87C227.044 205.692 227.219 205.719 227.378 205.79C227.538 205.86 227.677 205.97 227.78 206.111Z" fill="#FF725E"/>
<path opacity="0.3" d="M227.78 206.111L228.19 210.791C228.38 211.161 227.95 211.531 227.34 211.531H174.34C173.87 211.531 173.48 211.301 173.45 211.001L172.97 206.311C172.97 205.991 173.35 205.711 173.87 205.711H226.87C227.044 205.692 227.219 205.719 227.378 205.79C227.538 205.86 227.677 205.97 227.78 206.111Z" fill="#FAFAFA"/>
<path d="M220.651 212.031H222.071C222.361 212.031 222.571 211.891 222.551 211.711L221.891 205.621C221.891 205.441 221.621 205.301 221.341 205.301H219.891C219.601 205.301 219.39 205.441 219.41 205.621L220.071 211.711C220.121 211.891 220.371 212.031 220.651 212.031Z" fill="#FF725E"/>
<path d="M178.36 212.031H179.78C180.06 212.031 180.28 211.891 180.26 211.711L179.59 205.621C179.59 205.441 179.33 205.301 179.04 205.301H177.62C177.34 205.301 177.12 205.441 177.14 205.621L177.81 211.711C177.83 211.891 178.08 212.031 178.36 212.031Z" fill="#FF725E"/>
<path d="M199.51 212.031H200.89C201.17 212.031 201.39 211.891 201.37 211.711L200.7 205.621C200.7 205.441 200.43 205.301 200.15 205.301H198.73C198.45 205.301 198.23 205.441 198.25 205.621L198.92 211.711C198.98 211.891 199.22 212.031 199.51 212.031Z" fill="#FF725E"/>
<path d="M240.75 145.811C243.05 153.277 245.26 160.784 247.38 168.331L250.57 179.591L252.16 185.191L252.56 186.571L252.76 187.261L252.81 187.421L252.65 187.171C252.398 186.809 252.087 186.491 251.73 186.231C250.948 185.661 250.017 185.331 249.05 185.281C248.32 185.246 247.592 185.39 246.93 185.701C246.21 186.091 246.28 186.181 246.34 186.111C246.51 185.963 246.664 185.799 246.8 185.621C247.272 185.032 247.706 184.414 248.1 183.771C248.98 182.331 249.85 180.711 250.67 179.051C252.37 175.731 253.9 172.211 255.45 168.671C257 165.131 258.45 161.551 259.95 157.941C261.45 154.331 262.88 150.701 264.36 147.121L270.75 149.021C269.09 156.821 267.15 164.481 264.75 172.111C263.57 175.941 262.26 179.731 260.75 183.571C259.97 185.491 259.14 187.411 258.11 189.401C257.561 190.477 256.947 191.519 256.27 192.521C255.85 193.149 255.382 193.744 254.87 194.301C254.059 195.221 253.073 195.972 251.97 196.511C250.87 197.046 249.653 197.3 248.43 197.251C246.98 197.17 245.587 196.658 244.43 195.781C243.693 195.224 243.054 194.548 242.54 193.781C242.215 193.288 241.931 192.769 241.69 192.231C241.6 192.011 241.5 191.781 241.43 191.581L241.24 191.091L240.98 190.381L240.46 188.971C239.78 187.101 239.09 185.231 238.46 183.361C237.18 179.621 235.9 175.891 234.7 172.141C232.247 164.647 229.96 157.117 227.84 149.551L240.75 145.811Z" fill="#B65B52"/>
<path d="M236.27 130.991C241.52 132.581 249.55 153.171 249.55 153.171L229.2 167.721C229.2 167.721 220.05 150.121 222.25 143.341C224.55 136.281 230.29 129.171 236.27 130.991Z" fill="#FF725E"/>
<path opacity="0.5" d="M236.27 130.991C241.52 132.581 249.55 153.171 249.55 153.171L229.2 167.721C229.2 167.721 220.05 150.121 222.25 143.341C224.55 136.281 230.29 129.171 236.27 130.991Z" fill="white"/>
<path d="M264.59 149.861L261.8 137.561L273.4 143.681C273.4 143.681 273.54 151.961 268.86 154.571L264.59 149.861Z" fill="#B55B52"/>
<path d="M266.66 127.801L274.06 133.051L273.4 143.681L261.8 137.561L266.66 127.801Z" fill="#B55B52"/>
<path d="M58.8903 65.9H139.89C141.437 65.8847 142.97 66.1905 144.392 66.798C145.814 67.4055 147.095 68.3015 148.153 69.4293C149.212 70.5572 150.024 71.8923 150.54 73.3503C151.056 74.8083 151.264 76.3575 151.15 77.9L148.89 114.56C148.642 117.787 147.198 120.806 144.842 123.025C142.486 125.244 139.387 126.505 136.15 126.56H126.77L130.6 139.15L112.28 126.56H55.1803C53.6338 126.575 52.1009 126.269 50.6786 125.662C49.2564 125.054 47.9756 124.158 46.9173 123.031C45.859 121.903 45.0463 120.568 44.5304 119.11C44.0145 117.652 43.8068 116.102 43.9203 114.56L46.1603 77.9C46.4086 74.6744 47.8507 71.6574 50.2048 69.4383C52.5588 67.2192 55.6557 65.9576 58.8903 65.9Z" fill="#FF725E"/>
<path d="M132.47 85.1008H63.9705C63.6796 85.0992 63.3923 85.0372 63.1267 84.9188C62.861 84.8004 62.6229 84.628 62.4273 84.4128C62.2318 84.1975 62.0831 83.9439 61.9907 83.6681C61.8983 83.3924 61.8641 83.1004 61.8905 82.8108C61.9352 82.2039 62.2052 81.6356 62.6474 81.2175C63.0895 80.7994 63.672 80.5616 64.2805 80.5508H132.79C133.08 80.5514 133.366 80.6115 133.631 80.7274C133.896 80.8433 134.135 81.0125 134.331 81.2245C134.528 81.4364 134.68 81.6866 134.776 81.9595C134.872 82.2324 134.911 82.5222 134.89 82.8108C134.855 83.429 134.584 84.0102 134.135 84.4358C133.685 84.8614 133.09 85.0992 132.47 85.1008Z" fill="white"/>
<path d="M91.8902 98.4908H63.1502C62.8592 98.493 62.5709 98.4349 62.3034 98.3202C62.036 98.2055 61.7951 98.0367 61.596 97.8245C61.3969 97.6122 61.2439 97.3611 61.1465 97.0868C61.0491 96.8126 61.0095 96.5211 61.0302 96.2308C61.0752 95.6223 61.3466 95.0526 61.7909 94.6342C62.2351 94.2159 62.8201 93.9792 63.4302 93.9709H92.2002C92.4921 93.9673 92.7815 94.0244 93.0502 94.1385C93.3188 94.2526 93.5609 94.4211 93.7611 94.6335C93.9613 94.8459 94.1152 95.0976 94.2132 95.3725C94.3112 95.6474 94.351 95.9397 94.3302 96.2308C94.2824 96.8454 94.0047 97.4194 93.5525 97.8383C93.1002 98.2572 92.5067 98.4902 91.8902 98.4908Z" fill="white"/>
<path d="M116.52 111.881H62.3304C62.0394 111.883 61.7511 111.825 61.4836 111.71C61.2161 111.595 60.9753 111.426 60.7762 111.214C60.5771 111.002 60.424 110.751 60.3267 110.476C60.2293 110.202 60.1897 109.911 60.2104 109.621C60.2531 109.011 60.5238 108.44 60.9686 108.021C61.4133 107.602 61.9995 107.367 62.6104 107.361H116.8C117.092 107.357 117.381 107.414 117.649 107.528C117.917 107.642 118.159 107.811 118.358 108.024C118.558 108.236 118.711 108.488 118.807 108.763C118.904 109.038 118.943 109.33 118.92 109.621C118.875 110.229 118.604 110.799 118.16 111.217C117.716 111.635 117.131 111.872 116.52 111.881Z" fill="white"/>
<path d="M113 98.4909H101.67C101.379 98.493 101.091 98.4349 100.823 98.3202C100.556 98.2055 100.315 98.0367 100.116 97.8245C99.9169 97.6122 99.7639 97.3611 99.6665 97.0868C99.5691 96.8126 99.5296 96.5211 99.5503 96.2309C99.5974 95.6231 99.8695 95.0547 100.313 94.6368C100.757 94.2189 101.341 93.9815 101.95 93.9709H113.27C113.562 93.9672 113.851 94.0243 114.119 94.1385C114.387 94.2526 114.629 94.4214 114.828 94.634C115.027 94.8465 115.18 95.0983 115.277 95.3732C115.374 95.6482 115.412 95.9402 115.39 96.2309C115.345 96.8378 115.076 97.406 114.633 97.8241C114.191 98.2423 113.609 98.48 113 98.4909Z" fill="white"/>
<path d="M171.68 0.0003872H127.52C125.002 0.0381834 122.589 1.01639 120.755 2.7428C118.921 4.4692 117.8 6.81898 117.61 9.33038L115.89 37.8704C115.805 39.0703 115.968 40.275 116.371 41.4085C116.774 42.542 117.408 43.5797 118.232 44.4563C119.056 45.3328 120.052 46.0292 121.159 46.5015C122.265 46.9738 123.457 47.2117 124.66 47.2004H131.89L127.71 57.0004L143.17 47.2004H168.79C171.309 47.1626 173.722 46.1844 175.555 44.458C177.389 42.7316 178.511 40.3818 178.7 37.8704L180.45 9.33038C180.536 8.13044 180.372 6.92576 179.969 5.79226C179.566 4.65877 178.933 3.62105 178.109 2.7445C177.285 1.86796 176.288 1.17159 175.182 0.699301C174.075 0.227012 172.883 -0.0109553 171.68 0.0003872Z" fill="#FF725E"/>
<g opacity="0.5">
<path opacity="0.5" d="M171.68 0.0003872H127.52C125.002 0.0381834 122.589 1.01639 120.755 2.7428C118.921 4.4692 117.8 6.81898 117.61 9.33038L115.89 37.8704C115.805 39.0703 115.968 40.275 116.371 41.4085C116.774 42.542 117.408 43.5797 118.232 44.4563C119.056 45.3328 120.052 46.0292 121.159 46.5015C122.265 46.9738 123.457 47.2117 124.66 47.2004H131.89L127.71 57.0004L143.17 47.2004H168.79C171.309 47.1626 173.722 46.1844 175.555 44.458C177.389 42.7316 178.511 40.3818 178.7 37.8704L180.45 9.33038C180.536 8.13044 180.372 6.92576 179.969 5.79226C179.566 4.65877 178.933 3.62105 178.109 2.7445C177.285 1.86796 176.288 1.17159 175.182 0.699301C174.075 0.227012 172.883 -0.0109553 171.68 0.0003872Z" fill="#FAFAFA"/>
</g>
<path d="M150.39 28.2705C150.238 28.899 149.88 29.4584 149.372 29.859C148.864 30.2597 148.237 30.4785 147.59 30.4805H144.98C144.98 29.7405 145.04 29.2905 145.05 29.1305C145.088 27.6891 145.458 26.2759 146.13 25.0005C147.075 23.5788 148.276 22.3446 149.67 21.3605C150.783 20.5544 151.832 19.6652 152.81 18.7005C153.329 18.0866 153.638 17.3226 153.69 16.5205C153.73 15.9891 153.646 15.4558 153.447 14.9617C153.248 14.4676 152.937 14.0258 152.54 13.6705C151.57 12.8394 150.316 12.4165 149.04 12.4905C147.699 12.4539 146.389 12.8932 145.34 13.7305C144.717 14.2444 144.207 14.8809 143.84 15.6005C143.57 16.1262 143.151 16.5603 142.635 16.8485C142.119 17.1367 141.53 17.2661 140.94 17.2205C140.516 17.168 140.113 17.0095 139.766 16.7595C139.42 16.5095 139.142 16.1762 138.958 15.7904C138.775 15.4046 138.692 14.9787 138.717 14.5523C138.741 14.1258 138.873 13.7125 139.1 13.3505C139.704 12.3378 140.479 11.4378 141.39 10.6905C143.558 8.94842 146.282 8.04972 149.06 8.16051C152.33 8.16051 154.87 9.01052 156.7 10.7205C157.557 11.4571 158.231 12.3822 158.67 13.4232C159.109 14.4643 159.301 15.5929 159.23 16.7205C159.139 18.0022 158.696 19.2338 157.95 20.2805C156.546 22.0101 154.922 23.5497 153.12 24.8605C152.187 25.5123 151.38 26.329 150.74 27.2705C150.578 27.5859 150.46 27.9225 150.39 28.2705ZM144.68 35.4505V35.1305C144.733 34.4079 145.055 33.7313 145.583 33.235C146.111 32.7386 146.806 32.4586 147.53 32.4505H147.89C148.237 32.4455 148.581 32.5125 148.9 32.6474C149.219 32.7823 149.507 32.9821 149.745 33.2341C149.983 33.4861 150.166 33.7848 150.282 34.1113C150.398 34.4378 150.445 34.7849 150.42 35.1305V35.4505C150.368 36.1741 150.046 36.8518 149.519 37.3498C148.991 37.8478 148.296 38.1299 147.57 38.1405H147.25C146.9 38.1514 146.551 38.0883 146.226 37.9553C145.901 37.8223 145.608 37.6224 145.365 37.3687C145.123 37.115 144.937 36.813 144.819 36.4825C144.701 36.1521 144.654 35.8004 144.68 35.4505Z" fill="white"/>
</svg>
